<?xml version="1.0" encoding="utf-8"?>
<!-- Generator: Adobe Illustrator 16.0.0, SVG Export Plug-In . SVG Version: 6.00 Build 0)  -->
<!DOCTYPE svg PUBLIC "-//W3C//DTD SVG 1.1//EN" "http://www.w3.org/Graphics/SVG/1.1/DTD/svg11.dtd">
<svg version="1.1" id="Layer_1" xmlns="http://www.w3.org/2000/svg" xmlns:xlink="http://www.w3.org/1999/xlink" x="0px" y="0px"
	 width="360px" height="101.5px" viewBox="0 0 360 101.5" enable-background="new 0 0 360 101.5" xml:space="preserve">
<g>
	<g>
		<path fill="#FFFFFF" d="M109.236,56.965c-2.287,0-4.266-0.354-5.937-1.059c-1.627-0.701-2.861-1.846-3.695-3.428
			c-0.837-1.629-1.254-3.764-1.254-6.402V8.268h8.115v36.488c0,1.232,0.221,2.221,0.66,2.973c0.438,0.701,1.013,1.184,1.715,1.449
			c0.749,0.264,1.561,0.395,2.441,0.395h16.167v7.393H109.236z M140.526,57.361c-2.641,0-4.795-0.795-6.469-2.377
			c-1.671-1.584-2.505-3.762-2.505-6.533v-2.969c0-2.727,0.922-4.947,2.771-6.662c1.892-1.721,4.772-2.575,8.645-2.575h10.094
			v-3.102c0-1.234-0.219-2.265-0.66-3.102c-0.438-0.834-1.229-1.45-2.373-1.848c-1.144-0.439-2.881-0.66-5.213-0.66h-10.691v-4.751
			c1.629-0.439,3.541-0.812,5.742-1.119c2.199-0.354,4.817-0.53,7.853-0.53c2.903-0.044,5.364,0.309,7.389,1.055
			c2.024,0.704,3.541,1.892,4.553,3.563c1.058,1.671,1.585,3.958,1.585,6.861v24.351h-6.402l-1.384-3.828
			c-0.31,0.264-0.859,0.615-1.649,1.055c-0.793,0.439-1.781,0.926-2.969,1.451c-1.188,0.484-2.509,0.904-3.961,1.254
			C143.474,57.205,142.021,57.361,140.526,57.361z M144.484,51.619c0.572,0,1.21-0.066,1.914-0.197
			c0.749-0.178,1.495-0.354,2.243-0.531c0.748-0.221,1.428-0.416,2.044-0.588c0.663-0.221,1.19-0.422,1.585-0.598
			c0.439-0.176,0.702-0.287,0.791-0.33v-9.236l-7.654,0.396c-2.022,0.174-3.497,0.701-4.42,1.58c-0.878,0.881-1.32,2.047-1.32,3.5
			v1.449c0,1.1,0.222,2.004,0.66,2.707c0.483,0.658,1.078,1.119,1.782,1.385C142.857,51.422,143.65,51.576,144.484,51.619z
			 M169.351,56.965V6.619h8.182v27.909h4.488l8.842-12.932h8.38l-11.217,16.628l12.14,18.741h-8.381l-9.896-15.111h-4.355v15.111
			H169.351z M219.242,57.293c-3.826,0-6.884-0.527-9.173-1.582c-2.243-1.055-3.87-2.885-4.881-5.479
			c-1.014-2.637-1.52-6.289-1.52-10.951c0-4.753,0.483-8.424,1.453-11.021c0.967-2.641,2.574-4.488,4.816-5.543
			c2.243-1.053,5.279-1.583,9.104-1.583c3.389,0,6.094,0.354,8.118,1.055c2.065,0.66,3.563,1.87,4.485,3.629
			c0.967,1.715,1.453,4.157,1.453,7.325c0,2.245-0.442,4.043-1.32,5.411c-0.881,1.32-2.154,2.266-3.828,2.838
			c-1.627,0.57-3.563,0.855-5.807,0.855h-10.36c0.089,2.201,0.376,3.961,0.859,5.279c0.527,1.275,1.452,2.201,2.772,2.775
			c1.362,0.568,3.343,0.854,5.938,0.854h10.689v4.816c-1.806,0.354-3.718,0.66-5.742,0.924
			C224.321,57.16,221.971,57.293,219.242,57.293z M211.721,37.301h9.634c1.539,0,2.66-0.287,3.364-0.859
			c0.746-0.616,1.122-1.715,1.122-3.298c0-1.539-0.221-2.751-0.66-3.629s-1.166-1.497-2.18-1.848
			c-1.011-0.395-2.331-0.594-3.958-0.594c-1.848,0-3.298,0.285-4.354,0.859c-1.058,0.572-1.825,1.605-2.309,3.1
			C211.938,32.484,211.721,34.572,211.721,37.301z"/>
		<path fill="#FFFFFF" d="M102.899,68.037h5.311v1.615h-3.479v3.35h2.803v1.65h-2.803v3.877h4.024v1.633h-5.855V68.037z
			 M119.177,72.309l0.049,1.322v6.531h-1.848V68.02h0.231l7.126,7.951l-0.064-1.387v-6.547h1.849v12.125h-0.251L119.177,72.309z
			 M140.291,68.02l5.84,12.143h-2.127l-1.041-2.375h-5.558l-1.041,2.375h-2.062l5.807-12.143H140.291z M139.466,73.184l-1.319,2.936
			h4.09l-1.303-2.92l-0.709-1.666h-0.032L139.466,73.184z M153.91,68.037h3.085c1.737,0,2.893,0.291,3.462,0.873
			c0.572,0.584,0.859,1.285,0.859,2.113c0,0.549-0.12,1.07-0.363,1.564c-0.243,0.486-0.628,0.85-1.153,1.094
			c0.78,0.195,1.35,0.539,1.715,1.035c0.373,0.496,0.56,1.076,0.56,1.75c0,0.703-0.11,1.32-0.328,1.848
			c-0.222,0.527-0.678,0.967-1.37,1.32c-0.694,0.35-1.695,0.527-3.003,0.527h-3.463V68.037z M157.292,73.184
			c0.78,0,1.335-0.188,1.666-0.561c0.329-0.385,0.493-0.869,0.493-1.453c0-1.043-0.748-1.568-2.243-1.568h-1.484v3.582H157.292z
			 M157.621,78.611c1.001,0,1.671-0.199,2.012-0.594c0.351-0.408,0.527-0.918,0.527-1.537c0-0.582-0.198-1.033-0.594-1.352
			c-0.395-0.316-0.993-0.477-1.796-0.477h-2.047v3.959H157.621z M171,68.037h1.862V78.51h3.482v1.652H171V68.037z M185.098,68.037
			h1.848v12.125h-1.848V68.037z M198.292,72.309l0.052,1.322v6.531h-1.85V68.02h0.23l7.129,7.951l-0.066-1.387v-6.547h1.845v12.125
			h-0.245L198.292,72.309z M220.628,80.326c-1.199,0-2.271-0.275-3.217-0.824c-0.947-0.551-1.688-1.303-2.226-2.26
			c-0.53-0.971-0.793-2.053-0.793-3.252c0-1.166,0.268-2.217,0.808-3.148c0.54-0.936,1.286-1.666,2.245-2.197
			c0.957-0.527,2.032-0.791,3.232-0.791c0.647,0,1.231,0.063,1.747,0.184c0.53,0.109,0.957,0.242,1.288,0.395
			c0.329,0.145,0.555,0.273,0.675,0.381l-0.724,1.551c-0.683-0.551-1.688-0.824-3.019-0.824c-0.881,0-1.645,0.191-2.294,0.574
			c-0.648,0.387-1.144,0.91-1.485,1.568c-0.341,0.66-0.513,1.398-0.513,2.211c0,0.924,0.185,1.748,0.545,2.475
			c0.375,0.727,0.886,1.291,1.536,1.699c0.66,0.395,1.401,0.592,2.226,0.592c0.518,0,1.011-0.061,1.484-0.178
			c0.474-0.133,0.874-0.338,1.205-0.613v-2.342h-2.49v-1.699h4.321v4.752c-0.396,0.492-0.994,0.914-1.799,1.252
			C222.592,80.162,221.671,80.326,220.628,80.326z M250.474,80.326c-1.198,0-2.272-0.275-3.218-0.824
			c-0.947-0.551-1.688-1.303-2.228-2.26c-0.525-0.971-0.79-2.053-0.79-3.252c0-1.166,0.27-2.217,0.807-3.148
			c0.54-0.936,1.289-1.666,2.246-2.197c0.954-0.527,2.034-0.791,3.231-0.791c0.647,0,1.231,0.063,1.75,0.184
			c0.527,0.109,0.957,0.242,1.285,0.395c0.329,0.145,0.558,0.273,0.678,0.381l-0.729,1.551c-0.68-0.551-1.687-0.824-3.017-0.824
			c-0.881,0-1.644,0.191-2.294,0.574c-0.648,0.387-1.144,0.91-1.484,1.568c-0.342,0.66-0.511,1.398-0.511,2.211
			c0,0.924,0.182,1.748,0.545,2.475c0.373,0.727,0.886,1.291,1.533,1.699c0.66,0.395,1.401,0.592,2.226,0.592
			c0.519,0,1.014-0.061,1.485-0.178c0.474-0.133,0.873-0.338,1.204-0.613v-2.342h-2.49v-1.699h4.321v4.752
			c-0.396,0.492-0.994,0.914-1.796,1.252C252.437,80.162,251.519,80.326,250.474,80.326z M269.908,80.162l-2.441-4.586
			c-0.508,0.021-0.957,0.031-1.352,0.031h-0.464v4.555h-1.797V68.037h2.754c1.398,0,2.547,0.291,3.447,0.873
			c0.903,0.574,1.354,1.508,1.354,2.805c0,0.814-0.193,1.52-0.579,2.111c-0.373,0.58-0.935,1.035-1.684,1.352l2.889,4.984H269.908z
			 M266.824,74.107c1.077,0,1.813-0.23,2.208-0.691c0.408-0.475,0.611-1.033,0.611-1.686c0-1.441-0.962-2.158-2.886-2.158h-1.106
			v4.535H266.824z M286.262,80.326c-1.102,0-2.117-0.252-3.053-0.758c-0.925-0.518-1.661-1.25-2.208-2.193
			c-0.553-0.947-0.827-2.047-0.827-3.301c0-1.264,0.274-2.363,0.827-3.299c0.547-0.947,1.283-1.674,2.208-2.18
			c0.936-0.502,1.951-0.758,3.053-0.758c1.1,0,2.11,0.256,3.033,0.758c0.938,0.506,1.679,1.232,2.229,2.18
			c0.55,0.936,0.824,2.035,0.824,3.299c0,1.254-0.274,2.354-0.824,3.301c-0.55,0.943-1.291,1.676-2.229,2.193
			C288.372,80.074,287.361,80.326,286.262,80.326z M286.262,78.658c0.759,0,1.45-0.172,2.079-0.525
			c0.625-0.363,1.121-0.887,1.484-1.568c0.373-0.691,0.56-1.52,0.56-2.477c0-0.965-0.187-1.789-0.56-2.471
			c-0.363-0.695-0.859-1.215-1.484-1.568c-0.616-0.354-1.311-0.527-2.079-0.527c-0.771,0-1.47,0.174-2.096,0.527
			s-1.121,0.873-1.484,1.568c-0.363,0.682-0.545,1.506-0.545,2.471c0,0.957,0.187,1.785,0.562,2.477
			c0.373,0.682,0.874,1.205,1.502,1.568C284.836,78.486,285.523,78.658,286.262,78.658z M311.047,75.838l2.903-7.801h1.963
			l-4.717,12.125h-0.233l-3.298-7.854l-3.283,7.836h-0.23l-4.717-12.107h1.961l2.903,7.801l3.332-7.867h0.101L311.047,75.838z
			 M326.146,69.652h-3.102v-1.615h8.068v1.615h-3.136v10.51h-1.831V69.652z M339.638,68.037h1.848v4.949h4.272v-4.949h1.848v12.125
			h-1.848v-5.627h-4.272v5.627h-1.848V68.037z"/>
		<linearGradient id="SVGID_1_" gradientUnits="userSpaceOnUse" x1="291.1895" y1="57.8096" x2="292.1323" y2="49.4905">
			<stop  offset="0.0083" style="stop-color:#FFB703"/>
			<stop  offset="0.3476" style="stop-color:#E8033A"/>
			<stop  offset="0.5396" style="stop-color:#BF01A6"/>
			<stop  offset="1" style="stop-color:#6D08BE"/>
		</linearGradient>
		<path opacity="0.5" fill="url(#SVGID_1_)" d="M291.396,57.992c0.018,0,0.034-0.002,0.052-0.002c-0.191,0-0.371-0.02-0.555-0.029
			C291.06,57.98,291.224,57.992,291.396,57.992z"/>
		<g>
			<linearGradient id="SVGID_2_" gradientUnits="userSpaceOnUse" x1="288.9736" y1="53.2295" x2="313.1736" y2="53.2295">
				<stop  offset="0.1597" style="stop-color:#E60067"/>
				<stop  offset="1" style="stop-color:#4A00AA"/>
			</linearGradient>
			<path fill="url(#SVGID_2_)" d="M293.01,49.924c-0.307,0-0.549-0.064-0.726-0.195c-0.175-0.133-0.263-0.354-0.263-0.66
				c0-0.221,0.066-0.398,0.198-0.531c0.125-0.164,0.227-0.268,0.312-0.316l-3.327,2.26l-0.314,0.215
				c-1.021,0.766-1.683,1.98-1.683,3.355c0,2.143,1.609,3.904,3.686,4.152c0.184,0.01,0.363,0.033,0.555,0.033
				c0.015,0,0.029,0.002,0.046,0.002h23.228v-8.314H293.01z"/>
			
				<linearGradient id="SVGID_3_" gradientUnits="userSpaceOnUse" x1="298.8369" y1="62.1494" x2="281.8566" y2="16.049" gradientTransform="matrix(1 0 0 -1 0 72.1104)">
				<stop  offset="0.0083" style="stop-color:#FFB703"/>
				<stop  offset="0.3521" style="stop-color:#E8033A;stop-opacity:0.86"/>
				<stop  offset="0.6438" style="stop-color:#BF01A6"/>
				<stop  offset="1" style="stop-color:#6D08BE"/>
			</linearGradient>
			<path fill="url(#SVGID_3_)" d="M306.671,21.37c0-3.455-1.433-6.569-3.729-8.8c-1.35-0.343-2.813-0.52-4.388-0.52h-13.33v8.314
				h12.209c1.361,0,2.529,0.243,3.496,0.727s1.716,1.166,2.243,2.044c0.53,0.837,0.793,1.87,0.793,3.102
				c0,1.056-0.243,2.069-0.727,3.036c-0.334,0.665-0.79,1.264-1.353,1.806C304.792,28.833,306.671,25.326,306.671,21.37z"/>
			<linearGradient id="SVGID_4_" gradientUnits="userSpaceOnUse" x1="287.1709" y1="11.0576" x2="303.9355" y2="24.1777">
				<stop  offset="0.0083" style="stop-color:#FEC10A"/>
				<stop  offset="0.7833" style="stop-color:#FA4300"/>
			</linearGradient>
			<path fill="url(#SVGID_4_)" d="M306.671,21.37c0-3.455-1.433-6.569-3.729-8.8c-1.35-0.343-2.813-0.52-4.388-0.52h-13.33v8.314
				h12.209c1.361,0,2.529,0.243,3.496,0.727s1.716,1.166,2.243,2.044c0.53,0.837,0.793,1.87,0.793,3.102
				c0,1.056-0.243,2.069-0.727,3.036c-0.334,0.665-0.79,1.264-1.353,1.806C304.792,28.833,306.671,25.326,306.671,21.37z"/>
			<linearGradient id="SVGID_5_" gradientUnits="userSpaceOnUse" x1="304.1719" y1="54.168" x2="289.8" y2="15.1493">
				<stop  offset="0" style="stop-color:#4A00AA"/>
				<stop  offset="0.8403" style="stop-color:#E60067"/>
			</linearGradient>
			<path fill="url(#SVGID_5_)" d="M311.486,19.11c-1.188-2.155-2.881-3.87-5.082-5.148c-1.056-0.611-2.212-1.075-3.463-1.392
				c2.297,2.231,3.729,5.345,3.729,8.8c0,3.956-1.879,7.463-4.785,9.708c-0.255,0.246-0.524,0.483-0.824,0.699l-14.188,10.163
				c-1.229,0.881-2.243,2.023-3.033,3.432c-0.749,1.406-1.124,2.857-1.124,4.357c0,1.582,0.354,3.01,1.058,4.289
				c0.022,0.037,0.049,0.068,0.073,0.107c0.741,1.223,1.748,2.223,3.026,2.992c1.165,0.656,2.513,1.01,4.02,1.086
				c-2.076-0.248-3.686-2.01-3.686-4.152c0-1.375,0.662-2.59,1.683-3.355c0.104-0.076,0.206-0.145,0.314-0.215l3.327-2.26
				c0.005-0.002,0.013-0.01,0.018-0.012l14.187-9.635c2.331-1.583,4.002-3.364,5.016-5.342c1.056-2.024,1.583-4.358,1.583-6.997
				C313.334,23.596,312.718,21.223,311.486,19.11z"/>
			
				<linearGradient id="SVGID_6_" gradientUnits="userSpaceOnUse" x1="303.5264" y1="60.833" x2="286.3889" y2="14.306" gradientTransform="matrix(1 0 0 -1 0 72.1104)">
				<stop  offset="0.0083" style="stop-color:#FFB703"/>
				<stop  offset="0.3521" style="stop-color:#E8033A;stop-opacity:0.86"/>
				<stop  offset="0.6438" style="stop-color:#BF01A6"/>
				<stop  offset="1" style="stop-color:#6D08BE"/>
			</linearGradient>
			<path fill="url(#SVGID_6_)" d="M289.204,50.48c-0.108,0.07-0.211,0.139-0.314,0.215L289.204,50.48z"/>
			<linearGradient id="SVGID_7_" gradientUnits="userSpaceOnUse" x1="288.2295" y1="57.7949" x2="289.1554" y2="49.625">
				<stop  offset="0.0083" style="stop-color:#FFB703"/>
				<stop  offset="0.3476" style="stop-color:#E8033A"/>
				<stop  offset="0.5396" style="stop-color:#BF01A6"/>
				<stop  offset="1" style="stop-color:#6D08BE"/>
			</linearGradient>
			<path opacity="0.5" fill="url(#SVGID_7_)" d="M289.204,50.48c-0.108,0.07-0.211,0.139-0.314,0.215L289.204,50.48z"/>
		</g>
		<path fill="none" d="M265.227,49.924c1.058,0,2.002-0.24,2.837-0.727c0.837-0.527,1.497-1.209,1.98-2.043
			c0.527-0.881,0.792-1.826,0.792-2.84c0-1.053-0.265-2-0.792-2.836c-0.483-0.836-1.144-1.496-1.98-1.981
			c-0.835-0.524-1.779-0.79-2.837-0.79h-14.581v11.217H265.227z"/>
		<path fill="none" d="M250.646,30.788h13.725c0.967,0,1.848-0.218,2.638-0.66c0.793-0.483,1.409-1.122,1.848-1.912
			c0.483-0.792,0.727-1.671,0.727-2.64c0-0.967-0.243-1.846-0.727-2.641c-0.438-0.792-1.055-1.406-1.848-1.845
			c-0.79-0.483-1.671-0.727-2.638-0.727h-13.426h-0.299v8.395V30.788z"/>
		<linearGradient id="SVGID_8_" gradientUnits="userSpaceOnUse" x1="250.9463" y1="26.6069" x2="246.5729" y2="53.5764">
			<stop  offset="0.1649" style="stop-color:#E60067"/>
			<stop  offset="0.8492" style="stop-color:#31009E"/>
		</linearGradient>
		<path fill="url(#SVGID_8_)" d="M250.646,54.125v-4.201V38.707v-7.919v-2.029v-8.395h-5.395c0,0-4.044-0.132-4.044,3.659v34.216
			h14.832C250.208,58.238,250.646,54.125,250.646,54.125z"/>
		<path fill="none" d="M267.261,29.951c0.553-0.38,1.011-0.844,1.374-1.389C268.218,29.065,267.757,29.527,267.261,29.951z"/>
		<linearGradient id="SVGID_9_" gradientUnits="userSpaceOnUse" x1="239.3125" y1="16.6968" x2="268.3251" y2="20.4145">
			<stop  offset="0.0083" style="stop-color:#FEC10A"/>
			<stop  offset="0.7833" style="stop-color:#FA4300"/>
		</linearGradient>
		<path fill="url(#SVGID_9_)" d="M268.635,28.563c1.61-1.956,2.579-4.466,2.579-7.2c0-3.86-1.936-7.269-4.886-9.313h-12.896h-12.226
			v11.973c0-3.791,4.044-3.659,4.044-3.659h3.348h2.047h0.299h13.426c0.967,0,1.848,0.243,2.638,0.727
			c0.793,0.439,1.409,1.053,1.848,1.845c0.483,0.795,0.727,1.673,0.727,2.641c0,0.969-0.243,1.848-0.727,2.64
			C268.79,28.336,268.709,28.447,268.635,28.563z"/>
		<linearGradient id="SVGID_10_" gradientUnits="userSpaceOnUse" x1="252.916" y1="50.4824" x2="279.35" y2="44.2627">
			<stop  offset="0" style="stop-color:#C4008B"/>
			<stop  offset="0.324" style="stop-color:#9F36C8"/>
			<stop  offset="0.6392" style="stop-color:#BF01A6"/>
			<stop  offset="0.8759" style="stop-color:#E80380"/>
		</linearGradient>
		<path fill="url(#SVGID_10_)" d="M279.15,40.953c-0.704-1.586-1.693-2.947-2.97-4.094c-1.207-1.166-2.61-2.007-4.201-2.54
			c1.578,1.659,2.555,3.897,2.555,6.366c0,5.102-4.137,9.238-9.241,9.238c-0.01,0-0.022-0.002-0.034-0.002
			c-0.01,0-0.02,0.002-0.032,0.002h-14.581v4.201c0,0-0.438,4.113,5.394,4.113h11.895c2.287,0,4.353-0.506,6.201-1.52
			c1.848-1.01,3.322-2.441,4.422-4.287c1.144-1.85,1.715-4.002,1.715-6.469C280.271,44.162,279.898,42.49,279.15,40.953z"/>
		<path fill="#000D51" d="M271.979,34.319c-0.015-0.015-0.029-0.034-0.046-0.051c-0.015,0.005-0.027,0.012-0.042,0.017
			C271.924,34.297,271.95,34.31,271.979,34.319z"/>
		<linearGradient id="SVGID_11_" gradientUnits="userSpaceOnUse" x1="257.3525" y1="45.0205" x2="279.2189" y2="12.0752">
			<stop  offset="0" style="stop-color:#4A00AA"/>
			<stop  offset="0.8403" style="stop-color:#E60067"/>
		</linearGradient>
		<path fill="url(#SVGID_11_)" d="M277.369,17.657c-1.058-1.76-2.486-3.122-4.29-4.091c-1.76-1.011-3.74-1.517-5.938-1.517h-0.813
			c2.95,2.044,4.886,5.453,4.886,9.313c0,2.734-0.969,5.244-2.579,7.2c-0.363,0.545-0.821,1.008-1.374,1.389
			c-0.083,0.059-0.164,0.123-0.253,0.177c-0.79,0.442-1.671,0.66-2.638,0.66h-10.78h-2.944v7.919h5.627h8.954
			c1.058,0,2.002,0.266,2.837,0.79c0.837,0.485,1.497,1.146,1.98,1.981c0.527,0.836,0.792,1.783,0.792,2.836
			c0,1.014-0.265,1.959-0.792,2.84c-0.483,0.834-1.144,1.516-1.98,2.043c-0.824,0.48-1.762,0.719-2.805,0.725
			c0.012,0,0.024,0.002,0.034,0.002c5.104,0,9.241-4.137,9.241-9.238c0-2.469-0.977-4.708-2.555-6.366
			c-0.029-0.01-0.056-0.022-0.088-0.034c0.015-0.005,0.027-0.012,0.042-0.017c1.391-0.572,2.608-1.355,3.653-2.358
			c1.056-1.011,1.893-2.199,2.508-3.563c0.616-1.406,0.923-2.881,0.923-4.42C279.018,21.507,278.468,19.417,277.369,17.657z"/>
		<path fill="none" d="M341.852,49.924c1.058,0,2.002-0.24,2.839-0.727c0.834-0.527,1.497-1.209,1.98-2.043
			c0.525-0.881,0.79-1.826,0.79-2.84c0-1.053-0.265-2-0.79-2.836c-0.483-0.836-1.146-1.496-1.98-1.981
			c-0.837-0.524-1.781-0.79-2.839-0.79H327.27v11.217H341.852z"/>
		<path fill="none" d="M327.27,30.788h13.726c0.967,0,1.848-0.218,2.641-0.66c0.79-0.483,1.405-1.122,1.848-1.912
			c0.483-0.792,0.724-1.671,0.724-2.64c0-0.967-0.24-1.846-0.724-2.641c-0.442-0.792-1.058-1.406-1.848-1.845
			c-0.793-0.483-1.674-0.727-2.641-0.727h-13.426h-0.3v8.395V30.788z"/>
		<linearGradient id="SVGID_12_" gradientUnits="userSpaceOnUse" x1="327.5723" y1="26.6074" x2="323.1989" y2="53.5766">
			<stop  offset="0.1649" style="stop-color:#E60067"/>
			<stop  offset="0.8492" style="stop-color:#31009E"/>
		</linearGradient>
		<path fill="url(#SVGID_12_)" d="M327.27,54.125v-4.201V38.707v-7.919v-2.029v-8.395h-5.394c0,0-4.042-0.132-4.042,3.659v34.216
			h14.83C326.833,58.238,327.27,54.125,327.27,54.125z"/>
		<path fill="none" d="M343.888,29.951c0.553-0.38,1.009-0.844,1.37-1.389C344.845,29.065,344.381,29.527,343.888,29.951z"/>
		<linearGradient id="SVGID_13_" gradientUnits="userSpaceOnUse" x1="315.9395" y1="16.6963" x2="344.9493" y2="20.4136">
			<stop  offset="0.0083" style="stop-color:#FEC10A"/>
			<stop  offset="0.7833" style="stop-color:#FA4300"/>
		</linearGradient>
		<path fill="url(#SVGID_13_)" d="M345.258,28.563c1.611-1.956,2.581-4.466,2.581-7.2c0-3.86-1.934-7.269-4.884-9.313H330.06
			h-12.226v11.973c0-3.791,4.042-3.659,4.042-3.659h3.348h2.046h0.3h13.426c0.967,0,1.848,0.243,2.641,0.727
			c0.79,0.439,1.405,1.053,1.848,1.845c0.483,0.795,0.724,1.673,0.724,2.641c0,0.969-0.24,1.848-0.724,2.64
			C345.414,28.336,345.333,28.447,345.258,28.563z"/>
		<linearGradient id="SVGID_14_" gradientUnits="userSpaceOnUse" x1="329.54" y1="50.4824" x2="355.9749" y2="44.2625">
			<stop  offset="0" style="stop-color:#C4008B"/>
			<stop  offset="0.324" style="stop-color:#9F36C8"/>
			<stop  offset="0.6392" style="stop-color:#BF01A6"/>
			<stop  offset="0.8759" style="stop-color:#E80380"/>
		</linearGradient>
		<path fill="url(#SVGID_14_)" d="M355.775,40.953c-0.705-1.586-1.693-2.947-2.97-4.094c-1.207-1.166-2.608-2.007-4.198-2.54
			c1.577,1.659,2.552,3.897,2.552,6.366c0,5.102-4.138,9.238-9.239,9.238c-0.013,0-0.024-0.002-0.037-0.002
			c-0.01,0-0.02,0.002-0.031,0.002H327.27v4.201c0,0-0.437,4.113,5.395,4.113h11.894c2.287,0,4.356-0.506,6.204-1.52
			c1.845-1.01,3.32-2.441,4.419-4.287c1.144-1.85,1.716-4.002,1.716-6.469C356.896,44.162,356.523,42.49,355.775,40.953z"/>
		<path fill="#000D51" d="M348.607,34.319c-0.018-0.015-0.032-0.034-0.05-0.051c-0.015,0.005-0.026,0.012-0.039,0.017
			C348.548,34.297,348.575,34.31,348.607,34.319z"/>
		<linearGradient id="SVGID_15_" gradientUnits="userSpaceOnUse" x1="333.9766" y1="45.0205" x2="355.8432" y2="12.0747">
			<stop  offset="0" style="stop-color:#4A00AA"/>
			<stop  offset="0.8403" style="stop-color:#E60067"/>
		</linearGradient>
		<path fill="url(#SVGID_15_)" d="M353.993,17.657c-1.055-1.76-2.485-3.122-4.289-4.091c-1.76-1.011-3.737-1.517-5.937-1.517h-0.813
			c2.95,2.044,4.884,5.453,4.884,9.313c0,2.734-0.97,5.244-2.581,7.2c-0.361,0.545-0.817,1.008-1.37,1.389
			c-0.086,0.059-0.164,0.123-0.252,0.177c-0.793,0.442-1.674,0.66-2.641,0.66h-10.778h-2.947v7.919h5.627h8.955
			c1.058,0,2.002,0.266,2.839,0.79c0.834,0.485,1.497,1.146,1.98,1.981c0.525,0.836,0.79,1.783,0.79,2.836
			c0,1.014-0.265,1.959-0.79,2.84c-0.483,0.834-1.146,1.516-1.98,2.043c-0.827,0.48-1.765,0.719-2.808,0.725
			c0.013,0,0.024,0.002,0.037,0.002c5.102,0,9.239-4.137,9.239-9.238c0-2.469-0.975-4.708-2.552-6.366
			c-0.032-0.01-0.06-0.022-0.089-0.034c0.013-0.005,0.024-0.012,0.039-0.017c1.392-0.572,2.608-1.355,3.654-2.358
			c1.055-1.011,1.892-2.199,2.508-3.563c0.616-1.406,0.923-2.881,0.923-4.42C355.643,21.507,355.093,19.417,353.993,17.657z"/>
		<g>
			
				<linearGradient id="SVGID_16_" gradientUnits="userSpaceOnUse" x1="54.165" y1="4.0015" x2="35.6354" y2="64.0631" gradientTransform="matrix(1 0 0 -1 0 72.1104)">
				<stop  offset="0.2471" style="stop-color:#7E04D5"/>
				<stop  offset="0.5079" style="stop-color:#F80102"/>
				<stop  offset="0.6884" style="stop-color:#FB660B"/>
				<stop  offset="1" style="stop-color:#FEC914"/>
			</linearGradient>
			<path fill="url(#SVGID_16_)" d="M23.954,40.953c-1.904,0-3.462,1.555-3.462,3.459s1.558,3.463,3.462,3.463s3.46-1.559,3.46-3.463
				S25.858,40.953,23.954,40.953z M23.954,54.797c-1.904,0-3.462,1.557-3.462,3.461s1.558,3.461,3.462,3.461s3.46-1.557,3.46-3.461
				S25.858,54.797,23.954,54.797z M23.954,27.107c-1.904,0-3.462,1.558-3.462,3.462c0,1.902,1.558,3.462,3.462,3.462
				s3.46-1.561,3.46-3.462C27.414,28.666,25.858,27.107,23.954,27.107z M13.569,28.837c-0.967,0-1.73,0.761-1.73,1.732
				c0,0.969,0.763,1.728,1.73,1.728c0.97,0,1.733-0.758,1.733-1.728C15.302,29.598,14.539,28.837,13.569,28.837z M23.954,13.265
				c-1.904,0-3.462,1.558-3.462,3.46c0,1.904,1.558,3.46,3.462,3.46s3.46-1.556,3.46-3.46
				C27.414,14.823,25.858,13.265,23.954,13.265z M75.869,32.297c0.968,0,1.73-0.758,1.73-1.728c0-0.972-0.763-1.732-1.73-1.732
				c-0.969,0-1.732,0.761-1.732,1.732C74.137,31.539,74.9,32.297,75.869,32.297z M51.642,20.185c1.904,0,3.46-1.556,3.46-3.46
				c0-1.902-1.556-3.46-3.46-3.46s-3.463,1.558-3.463,3.46C48.179,18.629,49.737,20.185,51.642,20.185z M51.642,8.072
				c0.97,0,1.73-0.763,1.73-1.73c0-0.969-0.761-1.73-1.73-1.73c-0.969,0-1.729,0.761-1.729,1.73
				C49.912,7.309,50.673,8.072,51.642,8.072z M13.569,42.682c-0.967,0-1.73,0.764-1.73,1.73c0,0.969,0.763,1.73,1.73,1.73
				c0.97,0,1.733-0.762,1.733-1.73C15.302,43.445,14.539,42.682,13.569,42.682z M37.797,66.91c-0.969,0-1.73,0.762-1.73,1.73
				c0,0.967,0.761,1.73,1.73,1.73c0.969,0,1.732-0.764,1.732-1.73C39.529,67.672,38.766,66.91,37.797,66.91z M37.797,8.072
				c0.969,0,1.732-0.763,1.732-1.73c0-0.969-0.764-1.73-1.732-1.73c-0.969,0-1.73,0.761-1.73,1.73
				C36.067,7.309,36.828,8.072,37.797,8.072z M37.797,20.185c1.904,0,3.462-1.556,3.462-3.46c0-1.902-1.558-3.46-3.462-3.46
				c-1.902,0-3.46,1.558-3.46,3.46C34.337,18.629,35.895,20.185,37.797,20.185z M37.797,39.223c-2.871,0-5.19,2.318-5.19,5.189
				c0,2.873,2.319,5.193,5.19,5.193c2.873,0,5.192-2.32,5.192-5.193C42.989,41.541,40.67,39.223,37.797,39.223z M65.487,40.953
				c-1.904,0-3.463,1.555-3.463,3.459s1.559,3.463,3.463,3.463c1.901,0,3.46-1.559,3.46-3.463S67.389,40.953,65.487,40.953z
				 M65.487,54.797c-1.904,0-3.463,1.557-3.463,3.461s1.559,3.461,3.463,3.461c1.901,0,3.46-1.557,3.46-3.461
				S67.389,54.797,65.487,54.797z M65.487,27.107c-1.904,0-3.463,1.558-3.463,3.462c0,1.902,1.559,3.462,3.463,3.462
				c1.901,0,3.46-1.561,3.46-3.462C68.947,28.666,67.389,27.107,65.487,27.107z M65.487,13.265c-1.904,0-3.463,1.558-3.463,3.46
				c0,1.904,1.559,3.46,3.463,3.46c1.901,0,3.46-1.556,3.46-3.46C68.947,14.823,67.389,13.265,65.487,13.265z M75.869,42.682
				c-0.969,0-1.732,0.764-1.732,1.73c0,0.969,0.764,1.73,1.732,1.73c0.968,0,1.73-0.762,1.73-1.73
				C77.6,43.445,76.837,42.682,75.869,42.682z M51.642,54.797c-1.904,0-3.463,1.557-3.463,3.461s1.559,3.461,3.463,3.461
				s3.46-1.557,3.46-3.461S53.546,54.797,51.642,54.797z M51.642,66.91c-0.969,0-1.729,0.762-1.729,1.73
				c0,0.967,0.761,1.73,1.729,1.73c0.97,0,1.73-0.764,1.73-1.73C53.372,67.672,52.611,66.91,51.642,66.91z M37.797,25.377
				c-2.871,0-5.19,2.317-5.19,5.193c0,2.871,2.319,5.19,5.19,5.19c2.873,0,5.192-2.319,5.192-5.19
				C42.989,27.694,40.67,25.377,37.797,25.377z M37.797,54.797c-1.902,0-3.46,1.557-3.46,3.461s1.558,3.461,3.46,3.461
				c1.904,0,3.462-1.557,3.462-3.461S39.701,54.797,37.797,54.797z M51.642,39.223c-2.871,0-5.192,2.318-5.192,5.189
				c0,2.873,2.321,5.193,5.192,5.193c2.874,0,5.192-2.32,5.192-5.193C56.834,41.541,54.516,39.223,51.642,39.223z M51.642,25.377
				c-2.871,0-5.192,2.317-5.192,5.193c0,2.871,2.321,5.19,5.192,5.19c2.874,0,5.192-2.319,5.192-5.19
				C56.834,27.694,54.516,25.377,51.642,25.377z"/>
		</g>
	</g>
	
		<linearGradient id="SVGID_17_" gradientUnits="userSpaceOnUse" x1="30.5322" y1="38.7148" x2="20.5782" y2="2.7245" gradientTransform="matrix(1 0 0 -1 0 72.1104)">
		<stop  offset="0.0083" style="stop-color:#FEC214"/>
		<stop  offset="0.5396" style="stop-color:#FD050D"/>
		<stop  offset="1" style="stop-color:#7E04D5"/>
	</linearGradient>
	<path fill="url(#SVGID_17_)" d="M33.382,80.799c0,0,0,0-0.002,0c-2.405,0-4.574-1.256-5.801-3.355l-5.342-9.146
		c-0.731-1.25-1.963-2.135-3.376-2.43L8.487,63.703c-2.797-0.584-4.881-2.785-5.305-5.609c-0.427-2.83,0.915-5.547,3.416-6.928
		l29.668-16.385c1.028-0.567,2.127-0.856,3.266-0.856c1.98,0,3.932,0.923,5.223,2.471c1.29,1.548,1.798,3.515,1.431,5.524
		l-6.118,33.334C39.468,78.52,36.72,80.799,33.382,80.799z M39.531,35.563c-0.856,0-1.69,0.218-2.476,0.653L7.39,52.6
		c-2.299,1.273-2.844,3.545-2.589,5.246c0.257,1.705,1.448,3.715,4.02,4.252l10.373,2.162c1.87,0.391,3.495,1.561,4.457,3.211
		l5.345,9.148c0.945,1.613,2.542,2.539,4.388,2.539l0,0c2.071,0,4.542-1.316,5.072-4.201l6.118-33.332
		c0.279-1.527-0.104-3.012-1.078-4.182C42.513,36.265,41.031,35.563,39.531,35.563z"/>
	
		<linearGradient id="SVGID_18_" gradientUnits="userSpaceOnUse" x1="22.4824" y1="-12.3979" x2="47.3193" y2="18.5304" gradientTransform="matrix(1 0 0 -1 0 72.1104)">
		<stop  offset="0" style="stop-color:#9C11BF"/>
		<stop  offset="0.5052" style="stop-color:#FF0E00"/>
		<stop  offset="1" style="stop-color:#FEAC07"/>
	</linearGradient>
	<path fill="url(#SVGID_18_)" d="M36.467,96.889L36.467,96.889c-2.346,0-4.415-1.156-5.681-3.164l-5.646-8.967
		c-0.771-1.223-2.03-2.066-3.456-2.316l-10.439-1.816c-2.814-0.49-4.969-2.621-5.489-5.43c-0.518-2.811,0.731-5.57,3.185-7.035
		l29.104-17.365c1.062-0.635,2.257-0.969,3.454-0.969c1.974,0,3.851,0.869,5.156,2.385c1.288,1.494,1.836,3.406,1.541,5.387
		l-5.001,33.521C42.628,94.904,39.382,96.889,36.467,96.889z M41.499,51.465c-0.915,0-1.796,0.246-2.615,0.736L9.78,69.566
		c-2.255,1.346-2.727,3.637-2.413,5.332c0.314,1.693,1.571,3.66,4.16,4.113l10.437,1.818c1.882,0.322,3.546,1.441,4.562,3.055
		l5.646,8.965c0.959,1.523,2.525,2.396,4.294,2.396c2.145,0,4.657-1.367,5.106-4.367l5.001-33.523
		c0.224-1.5-0.188-2.947-1.161-4.076C44.435,52.143,42.972,51.465,41.499,51.465z"/>
</g>
</svg>
